<?xml version="1.0" encoding="UTF-8"?>
<svg version="1.1" xmlns="http://www.w3.org/2000/svg" width="419" height="81">
<path d="M0 0 C138.27 0 276.54 0 419 0 C419 26.73 419 53.46 419 81 C280.73 81 142.46 81 0 81 C0 54.27 0 27.54 0 0 Z " fill="#F6F7ED" transform="translate(0,0)"/>
<path d="M0 0 C3.00059704 -0.00072229 6.0011898 -0.00287897 9.00178576 -0.00549722 C19.62894898 -0.01473423 30.25609982 -0.01883743 40.88326693 -0.01804566 C49.46499214 -0.01752139 58.04667079 -0.0243646 66.62838411 -0.03855348 C125.96655257 -0.13458925 185.24121111 0.55063202 244.55807161 2.16725707 C244.55807161 2.49725707 244.55807161 2.82725707 244.55807161 3.16725707 C228.66419509 3.97786909 212.78275237 4.46402553 196.87057161 4.71803832 C194.95685762 4.74926001 194.95685762 4.74926001 193.00448275 4.78111243 C150.10071787 5.4646059 107.18713988 5.3546743 64.27926683 5.35236824 C55.92931686 5.35267359 47.57939885 5.36089909 39.22945833 5.37306762 C-63.7810077 5.52010353 -63.7810077 5.52010353 -106.44192839 3.16725707 C-106.44192839 2.83725707 -106.44192839 2.50725707 -106.44192839 2.16725707 C-105.23472136 2.14220092 -104.02751432 2.11714477 -102.78372526 2.09132934 C-98.17624836 1.99502741 -93.56884739 1.89541176 -88.96145964 1.79494262 C-86.99142598 1.75241359 -85.02137432 1.71070844 -83.05130339 1.66994262 C-70.26036071 1.43233233 -70.26036071 1.43233233 -57.47851896 0.92351317 C-38.32719554 -0.07750623 -19.17140512 0.00260991 0 0 Z " fill="#C2B187" transform="translate(141.44192838668823,67.83274292945862)"/>
<path d="M0 0 C3.99960899 -0.14638209 7.99852058 -0.23443323 12 -0.3125 C13.68802734 -0.3753418 13.68802734 -0.3753418 15.41015625 -0.43945312 C22.73146351 -0.54648978 27.32148626 0.29267296 33 5 C33.99 5.78375 34.98 6.5675 36 7.375 C39.2932667 11.66520798 38.66918486 17.28189606 38.47265625 22.421875 C37.82447479 27.3287694 36.75754525 29.8514084 33 33 C26.04060027 37.34776403 19.45141864 37.50118973 11.4375 37.25 C10.33341797 37.23195312 9.22933594 37.21390625 8.09179688 37.1953125 C5.39360019 37.14859048 2.69727965 37.0831014 0 37 C0 36.34 0 35.68 0 35 C0.99 34.505 0.99 34.505 2 34 C2.04953687 29.80079763 2.08578411 25.60175131 2.10986328 21.40234375 C2.11990427 19.97457922 2.13353981 18.54683517 2.15087891 17.11914062 C2.17521152 15.06375059 2.18650202 13.00863308 2.1953125 10.953125 C2.20578613 9.71723633 2.21625977 8.48134766 2.22705078 7.20800781 C2.01298081 4.18340629 1.59653159 2.53014349 0 0 Z " fill="#232448" transform="translate(95,17)"/>
<path d="M0 0 C3.87474457 -0.11668214 7.74903396 -0.18741231 11.625 -0.25 C13.26662109 -0.30027344 13.26662109 -0.30027344 14.94140625 -0.3515625 C21.30703343 -0.42872162 25.18329427 -0.32063305 30 4 C32 6 32 6 32.4375 8.8125 C31.86588806 12.97710129 30.13624593 14.33419096 27 17 C27.969375 17.61875 28.93875 18.2375 29.9375 18.875 C33 21 33 21 34 23 C34.79906078 29.96324393 34.79906078 29.96324393 32.765625 32.6015625 C28.40958525 36.2891011 24.99791324 37.12697309 19.45703125 37.09765625 C18.38388672 37.09443359 17.31074219 37.09121094 16.20507812 37.08789062 C15.08552734 37.07951172 13.96597656 37.07113281 12.8125 37.0625 C11.68134766 37.05798828 10.55019531 37.05347656 9.38476562 37.04882812 C6.58979073 37.03703498 3.7949218 37.0205765 1 37 C1.32379639 36.47744629 1.64759277 35.95489258 1.98120117 35.41650391 C3.96098594 30.72062333 3.33208299 25.44525038 3.31567383 20.41796875 C3.31249917 18.37446467 3.33604429 16.33238929 3.36132812 14.2890625 C3.36197266 13.00515625 3.36261719 11.72125 3.36328125 10.3984375 C3.36626221 9.21942871 3.36924316 8.04041992 3.37231445 6.82568359 C3.24945068 5.89320801 3.12658691 4.96073242 3 4 C2.01 3.34 1.02 2.68 0 2 C0 1.34 0 0.68 0 0 Z " fill="#2C2E52" transform="translate(291,17)"/>
<path d="M0 0 C3.68722927 -0.11701204 7.37397542 -0.18752045 11.0625 -0.25 C12.10083984 -0.28351562 13.13917969 -0.31703125 14.20898438 -0.3515625 C20.74300397 -0.43453418 24.69456703 0.09188271 30 4 C32.21189526 6.67270678 32.0009139 7.97441092 31.875 11.5 C30.92055047 15.31779811 29.98915624 16.55432671 27 19 C26.34 19.66 25.68 20.32 25 21 C25.8971875 22.3303125 25.8971875 22.3303125 26.8125 23.6875 C28.10612804 25.64642246 29.35589814 27.63765083 30.5 29.6875 C32.07761698 32.11965951 33.67851768 33.3189266 36 35 C36 35.66 36 36.32 36 37 C32.17500512 37.61254366 28.79752374 37.86426402 25 37 C22.22183994 34.04151312 20.7128549 30.64888307 19 27 C16.44869852 23.32312434 15.32470448 21.87032435 11 21 C11.11455681 22.91731918 11.24206258 24.8338675 11.375 26.75 C11.44460937 27.81734375 11.51421875 28.8846875 11.5859375 29.984375 C11.87451003 33.28466713 11.87451003 33.28466713 14 37 C9.38 37 4.76 37 0 37 C0 36.34 0 35.68 0 35 C0.99 34.505 0.99 34.505 2 34 C2.04953687 29.80079763 2.08578411 25.60175131 2.10986328 21.40234375 C2.11990427 19.97457922 2.13353981 18.54683517 2.15087891 17.11914062 C2.17521152 15.06375059 2.18650202 13.00863308 2.1953125 10.953125 C2.20578613 9.71723633 2.21625977 8.48134766 2.22705078 7.20800781 C2.01298081 4.18340629 1.59653159 2.53014349 0 0 Z " fill="#25264C" transform="translate(210,17)"/>
<path d="M0 0 C4.95 0 9.9 0 15 0 C15 0.66 15 1.32 15 2 C14.01 2.66 13.02 3.32 12 4 C11.41518879 6.88595946 11.41518879 6.88595946 11.3125 10.125 C11.1578125 13.033125 11.1578125 13.033125 11 16 C16.61 16 22.22 16 28 16 C27.87625 14.1025 27.7525 12.205 27.625 10.25 C27.55539062 9.18265625 27.48578125 8.1153125 27.4140625 7.015625 C27.12548997 3.71533287 27.12548997 3.71533287 25 0 C29.95 0 34.9 0 40 0 C40 0.66 40 1.32 40 2 C39.01 2.66 38.02 3.32 37 4 C36.54869842 6.94102575 36.54869842 6.94102575 36.63671875 10.3984375 C36.63736328 11.68234375 36.63800781 12.96625 36.63867188 14.2890625 C36.64697021 14.95969727 36.65526855 15.63033203 36.66381836 16.32128906 C36.687332 18.36043081 36.68439051 20.39825786 36.67773438 22.4375 C36.58478728 29.98107631 36.58478728 29.98107631 39 37 C34.38 37 29.76 37 25 37 C25 36.34 25 35.68 25 35 C25.99 34.505 25.99 34.505 27 34 C27.47001033 30.72444392 27.47001033 30.72444392 27.625 26.9375 C27.810625 23.5034375 27.810625 23.5034375 28 20 C22.39 20 16.78 20 11 20 C11.12375 22.0625 11.2475 24.125 11.375 26.25 C11.44460938 27.41015625 11.51421875 28.5703125 11.5859375 29.765625 C11.85160399 33.25323517 11.85160399 33.25323517 14 37 C9.38 37 4.76 37 0 37 C0 36.34 0 35.68 0 35 C0.99 34.505 0.99 34.505 2 34 C2.04953687 29.80079763 2.08578411 25.60175131 2.10986328 21.40234375 C2.11990427 19.97457922 2.13353981 18.54683517 2.15087891 17.11914062 C2.17521152 15.06375059 2.18650202 13.00863308 2.1953125 10.953125 C2.20578613 9.71723633 2.21625977 8.48134766 2.22705078 7.20800781 C2.18708705 3.73592172 2.18708705 3.73592172 0 0 Z " fill="#2D2F53" transform="translate(330,17)"/>
<path d="M0 0 C3.66623812 -0.1465954 7.331712 -0.23449874 11 -0.3125 C12.02996094 -0.35439453 13.05992187 -0.39628906 14.12109375 -0.43945312 C21.12971994 -0.55105545 25.5546012 0.49169466 31 5 C32.64156736 6.64156736 32.28815992 8.49215801 32.375 10.75 C32.34103442 14.71265154 32.21736339 15.71018215 29.75 19 C25.35764531 22.19443978 22.73991693 23.25571231 17.25 23.125 C16.26515625 23.10695313 15.2803125 23.08890625 14.265625 23.0703125 C13.51796875 23.04710938 12.7703125 23.02390625 12 23 C12.11351517 24.81325551 12.24112961 26.62563357 12.375 28.4375 C12.44460937 29.44683594 12.51421875 30.45617187 12.5859375 31.49609375 C12.72257813 32.32238281 12.85921875 33.14867187 13 34 C13.66 34.33 14.32 34.66 15 35 C15 35.66 15 36.32 15 37 C10.38 37 5.76 37 1 37 C1.66 35.68 2.32 34.36 3 33 C3.37313186 28.8096463 3.32940156 24.62373987 3.31567383 20.41796875 C3.31249917 18.37446467 3.33604429 16.33238929 3.36132812 14.2890625 C3.36197266 13.00515625 3.36261719 11.72125 3.36328125 10.3984375 C3.36626221 9.21942871 3.36924316 8.04041992 3.37231445 6.82568359 C3.24945068 5.89320801 3.12658691 4.96073242 3 4 C2.01 3.34 1.02 2.68 0 2 C0 1.34 0 0.68 0 0 Z " fill="#25264D" transform="translate(173,17)"/>
<path d="M0 0 C2.31 0 4.62 0 7 0 C9.63047461 5.07305818 11.91287102 10.15547703 13.9921875 15.4765625 C15.28018208 18.70154117 16.69695922 21.86073874 18.12109375 25.02734375 C19.58149955 28.30514344 20.86554717 31.59664152 22 35 C22.66 35 23.32 35 24 35 C24 35.66 24 36.32 24 37 C19.05 37 14.1 37 9 37 C9.33 36.34 9.66 35.68 10 35 C10.66 35 11.32 35 12 35 C11.01 32.36 10.02 29.72 9 27 C4.05 26.67 -0.9 26.34 -6 26 C-6.66 28.97 -7.32 31.94 -8 35 C-7.34 35 -6.68 35 -6 35 C-6 35.66 -6 36.32 -6 37 C-9.3 37 -12.6 37 -16 37 C-15.34 35.68 -14.68 34.36 -14 33 C-13.11245274 30.98464588 -12.23925687 28.96295116 -11.375 26.9375 C-11.12282715 26.34694824 -10.8706543 25.75639648 -10.61083984 25.14794922 C-7.0433874 16.77823926 -3.52344481 8.38830263 0 0 Z " fill="#2C2D50" transform="translate(264,17)"/>
<path d="M0 0 C1.4540625 0.0309375 1.4540625 0.0309375 2.9375 0.0625 C7.37695745 8.47135469 11.16729768 17.09563493 14.86499023 25.8503418 C15.23438721 26.724729 15.60378418 27.59911621 15.984375 28.5 C16.31276367 29.28246094 16.64115234 30.06492187 16.97949219 30.87109375 C17.89567428 32.96682526 18.91461387 35.01672774 19.9375 37.0625 C15.3175 37.0625 10.6975 37.0625 5.9375 37.0625 C5.97005208 35.04427083 6.00260417 33.02604167 6.03515625 31.0078125 C6.06399242 28.98064596 6.06399242 28.98064596 4.9375 27.0625 C2.38808627 26.75008629 -0.06611513 26.54946579 -2.625 26.4375 C-3.33591797 26.39882813 -4.04683594 26.36015625 -4.77929688 26.3203125 C-6.53992425 26.22578217 -8.30117728 26.14304183 -10.0625 26.0625 C-10.248125 27.320625 -10.43375 28.57875 -10.625 29.875 C-10.72941406 30.58269531 -10.83382812 31.29039063 -10.94140625 32.01953125 C-11.20154799 34.2650342 -11.20154799 34.2650342 -10.0625 37.0625 C-13.3625 37.0625 -16.6625 37.0625 -20.0625 37.0625 C-20.0625 36.4025 -20.0625 35.7425 -20.0625 35.0625 C-19.61777344 34.64226563 -19.17304687 34.22203125 -18.71484375 33.7890625 C-16.57065436 31.548562 -15.75995337 29.31767674 -14.625 26.4375 C-13.14072036 22.74013274 -11.64578003 19.06599141 -10 15.4375 C-8.16021258 11.35406938 -6.51205725 7.20717369 -4.89453125 3.03125 C-3.58239408 -0.07352527 -3.58938301 0.07325271 0 0 Z " fill="#292A4E" transform="translate(71.0625,16.9375)"/>
<path d="M0 0 C2.31 0 4.62 0 7 0 C8.44176565 3.16474116 9.87761654 6.33213326 11.3125 9.5 C11.71662109 10.386875 12.12074219 11.27375 12.53710938 12.1875 C14.89465522 17.4009347 17.03069491 22.62863192 19 28 C20.66639482 32.27745211 20.66639482 32.27745211 24 35 C24 35.66 24 36.32 24 37 C19.38 37 14.76 37 10 37 C10 34.69 10 32.38 10 30 C9.67 28.68 9.34 27.36 9 26 C4.05 26 -0.9 26 -6 26 C-6.66 28.97 -7.32 31.94 -8 35 C-7.34 35 -6.68 35 -6 35 C-6 35.66 -6 36.32 -6 37 C-9.3 37 -12.6 37 -16 37 C-15.34 35.68 -14.68 34.36 -14 33 C-10.24162061 25.25683283 -6.93617596 17.46882423 -4.00488281 9.38183594 C-2.83159137 6.15326154 -1.63261035 3.02648994 0 0 Z " fill="#25264B" transform="translate(25,17)"/>
<path d="M0 0 C7.80482734 0.00436143 15.60963866 0.00122234 23.41446501 -0.00362909 C31.02986911 -0.00817015 38.6452663 -0.00880794 46.26067132 -0.00619042 C50.77241656 -0.00464188 55.28415094 -0.00439587 59.79589546 -0.00772691 C64.00627692 -0.01062254 68.21662837 -0.00859898 72.4270066 -0.00283265 C73.96325526 -0.0015171 75.49950647 -0.00187856 77.03575408 -0.00409532 C84.5932383 -0.01399406 92.01791475 0.0795774 99.51550949 1.12856841 C99.51550949 1.78856841 99.51550949 2.44856841 99.51550949 3.12856841 C75.13032606 3.15206363 50.74514437 3.16962843 26.35995185 3.18038058 C15.03419635 3.18550856 3.70844794 3.19248348 -7.61730301 3.20400786 C-17.50371581 3.21406276 -27.39012347 3.22044718 -37.27654123 3.22265691 C-42.49775649 3.22394592 -47.71895706 3.22691421 -52.94016755 3.23429847 C-75.81058684 3.26543133 -98.63302918 3.13732277 -121.48449051 2.12856841 C-121.48449051 1.79856841 -121.48449051 1.46856841 -121.48449051 1.12856841 C-81.00173308 -0.23250357 -40.49964734 -0.0253307 0 0 Z " fill="#93825C" transform="translate(156.48449051380157,68.87143158912659)"/>
<path d="M0 0 C4.95 0 9.9 0 15 0 C15 0.99 15 1.98 15 3 C14.01 3 13.02 3 12 3 C12.08107802 6.89667247 12.19390612 10.79180304 12.3125 14.6875 C12.33505859 15.79029297 12.35761719 16.89308594 12.38085938 18.02929688 C12.41630859 19.09599609 12.45175781 20.16269531 12.48828125 21.26171875 C12.51446533 22.24100342 12.54064941 23.22028809 12.56762695 24.22924805 C13.11453241 27.7339516 14.47158886 30.47158886 17 33 C20.33142278 33.50125283 20.33142278 33.50125283 24 33 C26.63016161 30.8272578 28.47336894 29.05326212 30 26 C30.26633801 22.339063 30.23151361 18.66954746 30.25 15 C30.270625 13.97648437 30.29125 12.95296875 30.3125 11.8984375 C30.31765625 10.92132813 30.3228125 9.94421875 30.328125 8.9375 C30.3374707 8.03902344 30.34681641 7.14054687 30.35644531 6.21484375 C30.23881836 5.48394531 30.12119141 4.75304687 30 4 C29.01 3.34 28.02 2.68 27 2 C27 1.34 27 0.68 27 0 C30.63 0 34.26 0 38 0 C37.34 1.32 36.68 2.64 36 4 C35.68454193 6.51017652 35.68454193 6.51017652 35.69140625 9.2109375 C35.66626953 10.20867188 35.64113281 11.20640625 35.61523438 12.234375 C35.58021031 14.32025254 35.54893163 16.4061965 35.52148438 18.4921875 C35.33033881 25.72774655 34.33353173 30.17519843 29.625 35.875 C25.59706914 39.00221265 20.9585434 38.62555421 16.06640625 38.4140625 C12.01742982 37.86732173 9.89618664 36.89618664 7 34 C2.57764892 27.88554786 2.41246631 22.72614671 2.375 15.3125 C2.3494448 13.26680657 2.31591199 11.22119333 2.2734375 9.17578125 C2.26747559 8.27770752 2.26151367 7.37963379 2.25537109 6.4543457 C2.10678692 3.6264936 2.10678692 3.6264936 0 0 Z " fill="#2A2B50" transform="translate(374,17)"/>
<path d="M0 0 C8.32537559 0 10.83018656 0.31254947 16.875 5.4375 C19.83987041 9.27551994 19.63286379 13.40471034 19.41796875 18.0859375 C18.79622587 22.42070559 17.76706416 24.57757855 15 28 C9.69181582 31.82683045 7.20135523 31 0 31 C0 20.77 0 10.54 0 0 Z " fill="#F2F4EC" transform="translate(106,20)"/>
<path d="M0 0 C3.87474457 -0.11668214 7.74903396 -0.18741231 11.625 -0.25 C13.26662109 -0.30027344 13.26662109 -0.30027344 14.94140625 -0.3515625 C21.30703343 -0.42872162 25.18329427 -0.32063305 30 4 C32 6 32 6 32.4375 8.8125 C31.86588806 12.97710129 30.13624593 14.33419096 27 17 C27.969375 17.61875 28.93875 18.2375 29.9375 18.875 C33 21 33 21 34 23 C34.65547703 28.71201413 34.65547703 28.71201413 34 31 C29.72179879 35.7387252 29.72179879 35.7387252 26.0065918 36.30249023 C23.84671384 36.26847046 21.76796453 36.08182375 19.625 35.8125 C18.88894531 35.74224609 18.15289062 35.67199219 17.39453125 35.59960938 C15.5938022 35.42421369 13.79637339 35.21547947 12 35 C12 34.67 12 34.34 12 34 C12.60328125 33.97421875 13.2065625 33.9484375 13.828125 33.921875 C17.63803524 33.65149427 20.33681524 33.41054294 23.625 31.375 C25.30270941 28.93452367 25.30270941 28.93452367 25 25.375 C24.38846827 21.98579144 24.38846827 21.98579144 22.234375 20.828125 C19.85079099 19.94469876 17.77838351 19.59809266 15.25 19.375 C14.45078125 19.30023438 13.6515625 19.22546875 12.828125 19.1484375 C12.22484375 19.09945312 11.6215625 19.05046875 11 19 C11 18.34 11 17.68 11 17 C12.258125 16.896875 13.51625 16.79375 14.8125 16.6875 C17.27135361 16.3611035 18.82493061 16.09847653 21 14.875 C22.610675 11.85498438 22.36431186 9.33952535 22 6 C19.09907498 4.06604999 18.10325263 3.69868059 14.8125 3.375 C13.554375 3.25125 12.29625 3.1275 11 3 C11 7.29 11 11.58 11 16 C10.67 16 10.34 16 10 16 C9.67 11.71 9.34 7.42 9 3 C7.68 2.67 6.36 2.34 5 2 C5.33 2.66 5.66 3.32 6 4 C6.08543895 6.10528933 6.10714725 8.21331157 6.09765625 10.3203125 C6.09443359 11.57714844 6.09121094 12.83398438 6.08789062 14.12890625 C6.07951172 15.44761719 6.07113281 16.76632813 6.0625 18.125 C6.05748489 19.46484211 6.05292201 20.804686 6.04882812 22.14453125 C6.03701086 25.42973206 6.02053617 28.71484397 6 32 C5.34 31.67 4.68 31.34 4 31 C3.98541748 30.19256348 3.97083496 29.38512695 3.95581055 28.55322266 C3.88153914 24.9099873 3.78480975 21.26768967 3.6875 17.625 C3.66494141 16.35398437 3.64238281 15.08296875 3.61914062 13.7734375 C3.58369141 12.56171875 3.54824219 11.35 3.51171875 10.1015625 C3.48553467 8.98088379 3.45935059 7.86020508 3.43237305 6.70556641 C3.28968994 5.81272949 3.14700684 4.91989258 3 4 C2.01 3.34 1.02 2.68 0 2 C0 1.34 0 0.68 0 0 Z " fill="#292949" transform="translate(291,17)"/>
<path d="M0 0 C4.95 0 9.9 0 15 0 C15 0.66 15 1.32 15 2 C14.01 2.66 13.02 3.32 12 4 C11.41407366 7.11610554 11.41407366 7.11610554 11.3125 10.625 C11.1578125 13.780625 11.1578125 13.780625 11 17 C16.61 17 22.22 17 28 17 C28 17.66 28 18.32 28 19 C22.39 19 16.78 19 11 19 C11.12375 21.2275 11.2475 23.455 11.375 25.75 C11.44460938 27.00296875 11.51421875 28.2559375 11.5859375 29.546875 C11.8295151 33.22160565 11.8295151 33.22160565 14 37 C9.38 37 4.76 37 0 37 C0 36.34 0 35.68 0 35 C0.99 34.505 0.99 34.505 2 34 C2.04953687 29.80079763 2.08578411 25.60175131 2.10986328 21.40234375 C2.11990427 19.97457922 2.13353981 18.54683517 2.15087891 17.11914062 C2.17521152 15.06375059 2.18650202 13.00863308 2.1953125 10.953125 C2.20578613 9.71723633 2.21625977 8.48134766 2.22705078 7.20800781 C2.18708705 3.73592172 2.18708705 3.73592172 0 0 Z " fill="#21234A" transform="translate(330,17)"/>
<path d="M0 0 C4.62 0 9.24 0 14 0 C13.34 1.32 12.68 2.64 12 4 C11.72433805 7.29467266 11.72433805 7.29467266 11.8046875 10.953125 C11.8075174 11.61334656 11.81034729 12.27356812 11.81326294 12.95379639 C11.82441585 15.05271897 11.84951054 17.15120742 11.875 19.25 C11.88503616 20.67707715 11.8941609 22.10416102 11.90234375 23.53125 C11.92433889 27.02097328 11.95883464 30.51044423 12 34 C12.66 34.33 13.32 34.66 14 35 C14 35.66 14 36.32 14 37 C9.38 37 4.76 37 0 37 C0.66 35.68 1.32 34.36 2 33 C2.30765495 29.86981753 2.30765495 29.86981753 2.265625 26.40625 C2.26820313 25.12878906 2.27078125 23.85132812 2.2734375 22.53515625 C2.26924805 21.87273926 2.26505859 21.21032227 2.26074219 20.52783203 C2.25003459 18.50653057 2.26065396 16.48611775 2.2734375 14.46484375 C2.26957031 12.54865234 2.26957031 12.54865234 2.265625 10.59375 C2.26336914 9.42521484 2.26111328 8.25667969 2.25878906 7.05273438 C2.16539337 3.71401491 2.16539337 3.71401491 0 0 Z " fill="#26274C" transform="translate(139,17)"/>
<path d="M0 0 C3.68722927 -0.11701204 7.37397542 -0.18752045 11.0625 -0.25 C12.10083984 -0.28351562 13.13917969 -0.31703125 14.20898438 -0.3515625 C20.74300397 -0.43453418 24.69456703 0.09188271 30 4 C32.21189526 6.67270678 32.0009139 7.97441092 31.875 11.5 C30.92805461 15.28778155 30.20575657 16.80176692 27 19 C24.8125 18.875 24.8125 18.875 23 18 C22.67 17.34 22.34 16.68 22 16 C21.01 16.66 20.02 17.32 19 18 C16.95703125 18.1953125 16.95703125 18.1953125 14.8125 18.125 C13.554375 18.08375 12.29625 18.0425 11 18 C11 13.05 11 8.1 11 3 C15.455 2.505 15.455 2.505 20 2 C13.4 1.67 6.8 1.34 0 1 C0 0.67 0 0.34 0 0 Z " fill="#2F2F52" transform="translate(210,17)"/>
<path d="M0 0 C3.99960899 -0.14638209 7.99852058 -0.23443323 12 -0.3125 C13.68802734 -0.3753418 13.68802734 -0.3753418 15.41015625 -0.43945312 C22.73146351 -0.54648978 27.32148626 0.29267296 33 5 C33.99 5.78375 34.98 6.5675 36 7.375 C39.9114853 12.47057438 38.76086552 20.02362896 38 26 C37.31654536 28.5244365 36.68739548 29.94639142 34.9765625 31.90234375 C30.47605017 34.40164012 25.02534601 34.05150428 20 34 C20.99 33.34 21.98 32.68 23 32 C26.74703952 28.52060616 28.74869876 26.48788228 29.2734375 21.29296875 C29.66499697 14.39913299 29.66499697 14.39913299 26.8125 8.375 C24.20005349 6.16893406 22.26551229 4.93300351 19 4 C19.99 3.67 20.98 3.34 22 3 C22 2.34 22 1.68 22 1 C14.74 1 7.48 1 0 1 C0 0.67 0 0.34 0 0 Z " fill="#23254A" transform="translate(95,17)"/>
<path d="M0 0 C2 2 2 2 2 5 C2.7425 4.9175 3.485 4.835 4.25 4.75 C7 5 7 5 9.3125 6.5 C11.21041286 9.31172276 11.55252063 11.53530299 11.7265625 14.90234375 C10.52900047 18.35982122 8.15389992 20.35275882 5 22 C2.13407284 22.43575295 -0.51043411 22.17251325 -3.375 21.8125 C-4.11105469 21.74224609 -4.84710938 21.67199219 -5.60546875 21.59960938 C-7.4061978 21.42421369 -9.20362661 21.21547947 -11 21 C-11 20.67 -11 20.34 -11 20 C-10.09507812 19.96132813 -10.09507812 19.96132813 -9.171875 19.921875 C-5.36196476 19.65149427 -2.66318476 19.41054294 0.625 17.375 C2.30270941 14.93452367 2.30270941 14.93452367 2 11.375 C1.38846827 7.98579144 1.38846827 7.98579144 -0.765625 6.828125 C-3.14920901 5.94469876 -5.22161649 5.59809266 -7.75 5.375 C-8.94882812 5.26285156 -8.94882812 5.26285156 -10.171875 5.1484375 C-10.77515625 5.09945312 -11.3784375 5.05046875 -12 5 C-12 4.34 -12 3.68 -12 3 C-10.82630859 2.80083984 -10.82630859 2.80083984 -9.62890625 2.59765625 C-8.61699219 2.42105469 -7.60507812 2.24445312 -6.5625 2.0625 C-5.55316406 1.88847656 -4.54382813 1.71445312 -3.50390625 1.53515625 C-1.0712562 1.25248903 -1.0712562 1.25248903 0 0 Z " fill="#27284C" transform="translate(314,31)"/>
<path d="M0 0 C0.66 0 1.32 0 2 0 C2.84026396 1.76755526 3.67198722 3.53917263 4.5 5.3125 C4.9640625 6.29863281 5.428125 7.28476562 5.90625 8.30078125 C7 11 7 11 7 14 C1.06 14.495 1.06 14.495 -5 15 C1.93 15.495 1.93 15.495 9 16 C9 16.33 9 16.66 9 17 C4.05 17 -0.9 17 -6 17 C-6.66 19.97 -7.32 22.94 -8 26 C-7.34 26 -6.68 26 -6 26 C-6 26.66 -6 27.32 -6 28 C-9.3 28 -12.6 28 -16 28 C-15.34 26.68 -14.68 25.36 -14 24 C-13.5875 22.865625 -13.175 21.73125 -12.75 20.5625 C-11 17 -11 17 -8.0625 14.5625 C-3.38859689 10.65168312 -1.32348914 5.88362993 0 0 Z " fill="#595971" transform="translate(25,26)"/>
<path d="M0 0 C9.16988417 -0.48262548 9.16988417 -0.48262548 12.6875 1.5625 C14.59417159 5.10346152 14.10579562 7.19882756 13 11 C11.5 12.9375 11.5 12.9375 9 14 C5.95234487 14.23120142 3.06631223 14.13527848 0 14 C0 9.38 0 4.76 0 0 Z " fill="#F2F2EC" transform="translate(303,37)"/>
<path d="M0 0 C5.27483751 0.45868152 5.27483751 0.45868152 7.6640625 2.2421875 C9.8916137 5.17317592 9.52717399 7.98861043 9.41796875 11.55078125 C9 14 9 14 6.8125 17.0625 C1.29299598 20.86482499 -4.51632985 20.11330686 -11 20 C-11 19.34 -11 18.68 -11 18 C-7.7 17.34 -4.4 16.68 -1 16 C0.70576237 10.88271289 0.0687337 6.19099226 -1 1 C-0.67 0.67 -0.34 0.34 0 0 Z " fill="#26274C" transform="translate(196,19)"/>
<path d="M0 0 C7.22891566 -0.48192771 7.22891566 -0.48192771 10.5 1.5625 C12.58392818 4.94888329 12.55802097 7.09385318 12 11 C10.5 13.4375 10.5 13.4375 8 15 C5.24154167 15.32111824 2.79456032 15.18630402 0 15 C0 10.05 0 5.1 0 0 Z " fill="#F4F5F0" transform="translate(185,21)"/>
<path d="M0 0 C7 0 7 0 9.9375 1.5625 C12 4 12 4 12.5625 7.5 C12 11 12 11 10.5 13.4375 C6.86353539 15.71029038 4.24217465 15.28281164 0 15 C0 10.05 0 5.1 0 0 Z " fill="#FBFCF3" transform="translate(221,20)"/>
<path d="M0 0 C0.86225189 -0.00095673 1.72450378 -0.00191345 2.61288452 -0.00289917 C4.4403287 -0.00357991 6.2677753 -0.00173303 8.09521484 0.00244141 C10.86691873 0.00775211 13.63845767 0.00251315 16.41015625 -0.00390625 C18.19010452 -0.00324469 19.97005269 -0.00196191 21.75 0 C22.56908844 -0.00202423 23.38817688 -0.00404846 24.23208618 -0.00613403 C29.6492425 0.01546806 34.89778354 0.45589821 40.2734375 1.1328125 C40.2734375 1.7928125 40.2734375 2.4528125 40.2734375 3.1328125 C23.1134375 3.1328125 5.9534375 3.1328125 -11.7265625 3.1328125 C-11.7265625 2.4728125 -11.7265625 1.8128125 -11.7265625 1.1328125 C-7.81009034 -0.17267822 -4.08169435 -0.00993979 0 0 Z " fill="#B2955C" transform="translate(215.7265625,68.8671875)"/>
<path d="M0 0 C22.01971744 -0.16840589 43.99256581 0.31198177 66 1 C66 1.33 66 1.66 66 2 C50.02913958 2.88615996 34.11815668 3.12558703 18.125 3.0625 C15.86458434 3.05746603 13.60416758 3.05290653 11.34375 3.04882812 C5.89580846 3.03799332 0.44790973 3.021411 -5 3 C-5 2.67 -5 2.34 -5 2 C-3.35 1.67 -1.7 1.34 0 1 C0 0.67 0 0.34 0 0 Z " fill="#C4B487" transform="translate(320,69)"/>
<path d="M0 0 C17.49 0 34.98 0 53 0 C52.01 0.33 51.02 0.66 50 1 C50 1.66 50 2.32 50 3 C35.81 3 21.62 3 7 3 C7 2.67 7 2.34 7 2 C4.69 1.67 2.38 1.34 0 1 C0 0.67 0 0.34 0 0 Z " fill="#A48954" transform="translate(154,69)"/>
<path d="M0 0 C1.8368763 0.00212242 1.8368763 0.00212242 3.71086121 0.00428772 C7.57158998 0.0098263 11.4322579 0.02236685 15.29296875 0.03515625 C17.93163978 0.0401792 20.57031173 0.04474071 23.20898438 0.04882812 C29.6328328 0.05977551 36.05664642 0.07645107 42.48046875 0.09765625 C42.48046875 0.42765625 42.48046875 0.75765625 42.48046875 1.09765625 C37.86046875 1.42765625 33.24046875 1.75765625 28.48046875 2.09765625 C28.48046875 2.42765625 28.48046875 2.75765625 28.48046875 3.09765625 C10.00046875 3.09765625 -8.47953125 3.09765625 -27.51953125 3.09765625 C-27.18953125 2.43765625 -26.85953125 1.77765625 -26.51953125 1.09765625 C-17.83750173 -0.34797883 -8.77757951 -0.03912785 0 0 Z " fill="#D0CBB3" transform="translate(36.51953125,68.90234375)"/>
<path d="M0 0 C6.8359375 -0.1953125 6.8359375 -0.1953125 9 0 C11 2 11 2 11.3125 5.4375 C11 9 11 9 10 10.9375 C6.73357754 12.67278693 3.65648548 12.17982715 0 12 C0 8.04 0 4.08 0 0 Z " fill="#F2F3EE" transform="translate(303,21)"/>
<path d="M0 0 C5.95906272 -0.02485652 11.91809475 -0.04293377 17.87719727 -0.05493164 C19.90129116 -0.05993738 21.92538148 -0.06674396 23.94946289 -0.07543945 C26.87126552 -0.08767059 29.79302004 -0.09326605 32.71484375 -0.09765625 C33.60896469 -0.10281754 34.50308563 -0.10797882 35.42430115 -0.11329651 C41.02819663 -0.11378856 46.44034924 0.28810852 52 1 C49.63452739 3.36547261 49.1852661 3.2557499 45.9765625 3.265625 C45.13303223 3.26949219 44.28950195 3.27335937 43.42041016 3.27734375 C42.03668213 3.26380859 42.03668213 3.26380859 40.625 3.25 C39.19679932 3.24419922 39.19679932 3.24419922 37.73974609 3.23828125 C25.13036405 3.09304441 12.56177479 2.03830014 0 1 C0 0.67 0 0.34 0 0 Z " fill="#987F50" transform="translate(111,69)"/>
<path d="M0 0 C2.56269497 1.04109483 4.02610343 2.02610343 6 4 C6.4375 6.8125 6.4375 6.8125 6 10 C3.5 12.875 3.5 12.875 1 15 C1.33 15.66 1.66 16.32 2 17 C1.01 17 0.02 17 -1 17 C-1.66 15.68 -2.32 14.36 -3 13 C-3.99 13 -4.98 13 -6 13 C-5.34 12.34 -4.68 11.68 -4 11 C-3.61067967 9.01014051 -3.28112064 7.00800456 -3 5 C-2.5625 2.6875 -2.5625 2.6875 -2 1 C-1.34 0.67 -0.68 0.34 0 0 Z " fill="#303255" transform="translate(317,19)"/>
<path d="M0 0 C5.88582053 -0.02496759 11.77160932 -0.04298502 17.6574707 -0.05493164 C19.65422097 -0.05991909 21.65096766 -0.06671145 23.64770508 -0.07543945 C34.48039926 -0.12155911 45.21389785 -0.13423505 56 1 C55.67 1.66 55.34 2.32 55 3 C41.8 3 28.6 3 15 3 C15 2.67 15 2.34 15 2 C10.05 1.67 5.1 1.34 0 1 C0 0.67 0 0.34 0 0 Z " fill="#E3DCBF" transform="translate(349,69)"/>
<path d="M0 0 C5.61 0 11.22 0 17 0 C17 4.62 17 9.24 17 14 C16.01 13.67 15.02 13.34 14 13 C14.33 9.37 14.66 5.74 15 2 C10.71 2 6.42 2 2 2 C2.33 5.96 2.66 9.92 3 14 C2.01 13.67 1.02 13.34 0 13 C0 8.71 0 4.42 0 0 Z " fill="#EAEAEA" transform="translate(341,37)"/>
<path d="M0 0 C4.95 0 9.9 0 15 0 C15 0.99 15 1.98 15 3 C14.01 3 13.02 3 12 3 C12 11.91 12 20.82 12 30 C10 28 10 28 9.77294922 25.47802734 C9.78865967 23.92269287 9.78865967 23.92269287 9.8046875 22.3359375 C9.81113281 21.21445312 9.81757813 20.09296875 9.82421875 18.9375 C9.84097656 17.761875 9.85773438 16.58625 9.875 15.375 C9.88402344 14.19164062 9.89304687 13.00828125 9.90234375 11.7890625 C9.92597188 8.85917477 9.95891486 5.9296866 10 3 C8.906875 3.020625 7.81375 3.04125 6.6875 3.0625 C3 3 3 3 0 2 C0 1.34 0 0.68 0 0 Z " fill="#3E3D57" transform="translate(374,17)"/>
<path d="M0 0 C3.63 0 7.26 0 11 0 C10.34 1.32 9.68 2.64 9 4 C8.63675609 6.60750922 8.63675609 6.60750922 8.5859375 9.421875 C8.52792969 10.95908203 8.52792969 10.95908203 8.46875 12.52734375 C8.42234375 14.12255859 8.42234375 14.12255859 8.375 15.75 C8.31699219 17.36841797 8.31699219 17.36841797 8.2578125 19.01953125 C8.16365369 21.67951775 8.07802613 24.3394994 8 27 C7.67 27 7.34 27 7 27 C6.67 20.4 6.34 13.8 6 7 C5.67 12.94 5.34 18.88 5 25 C4.67 25 4.34 25 4 25 C3.98541748 24.37432129 3.97083496 23.74864258 3.95581055 23.10400391 C3.88147196 20.27703598 3.78476766 17.45126792 3.6875 14.625 C3.66494141 13.64015625 3.64238281 12.6553125 3.61914062 11.640625 C3.58369141 10.69960938 3.54824219 9.75859375 3.51171875 8.7890625 C3.48553467 7.91975098 3.45935059 7.05043945 3.43237305 6.15478516 C3.18654782 3.61399973 3.18654782 3.61399973 0 2 C0 1.34 0 0.68 0 0 Z " fill="#45465F" transform="translate(401,17)"/>
<path d="M0 0 C2.66246807 1.33123403 2.94601652 2.6764378 4.125 5.375 C4.47820312 6.16648437 4.83140625 6.95796875 5.1953125 7.7734375 C6 10 6 10 6 13 C2.7 13 -0.6 13 -4 13 C-3.50269348 8.02693484 -2.44697666 4.36200187 0 0 Z " fill="#EEEEEC" transform="translate(265,26)"/>
<path d="M0 0 C0.66 0 1.32 0 2 0 C2.67595315 1.41225926 3.34040059 2.83002905 4 4.25 C4.37125 5.03890625 4.7425 5.8278125 5.125 6.640625 C6 9 6 9 6 13 C2.7 13 -0.6 13 -4 13 C-3.27991594 8.39146203 -1.68704061 4.32762591 0 0 Z " fill="#ECEDEA" transform="translate(25,26)"/>
<path d="M0 0 C2.66246807 1.33123403 2.94601652 2.6764378 4.125 5.375 C4.47820312 6.16648437 4.83140625 6.95796875 5.1953125 7.7734375 C6 10 6 10 6 13 C2.7 13 -0.6 13 -4 13 C-2.125 3.89285714 -2.125 3.89285714 0 0 Z " fill="#EDEEEC" transform="translate(68,26)"/>
<path d="M0 0 C0.33 0 0.66 0 1 0 C1.08729047 4.06236402 1.14048992 8.12448589 1.1875 12.1875 C1.21263672 13.33798828 1.23777344 14.48847656 1.26367188 15.67382812 C1.27333984 16.78564453 1.28300781 17.89746094 1.29296875 19.04296875 C1.3086792 20.06414795 1.32438965 21.08532715 1.34057617 22.13745117 C0.9430385 25.47876246 0.0708907 27.36027316 -2 30 C-2.99 30 -3.98 30 -5 30 C-4.69181644 28.68647977 -4.37832335 27.37420428 -4.0625 26.0625 C-3.80146484 24.96615234 -3.80146484 24.96615234 -3.53515625 23.84765625 C-3 22 -3 22 -2 21 C-1.78800773 18.03799688 -1.62338774 15.09087558 -1.5 12.125 C-1.43099262 10.48160202 -1.35822621 8.8383565 -1.28125 7.1953125 C-1.25095703 6.46328613 -1.22066406 5.73125977 -1.18945312 4.97705078 C-1 3 -1 3 0 0 Z " fill="#191A3E" transform="translate(407,21)"/>
<path d="M0 0 C0.33 0 0.66 0 1 0 C0.98839844 0.75925781 0.97679687 1.51851562 0.96484375 2.30078125 C0.95582031 3.29464844 0.94679688 4.28851563 0.9375 5.3125 C0.92589844 6.29863281 0.91429687 7.28476562 0.90234375 8.30078125 C0.87670138 11.09963849 0.87670138 11.09963849 2 14 C-1.3 14 -4.6 14 -8 14 C-8 12 -8 12 -6.6328125 10.6328125 C-6.09398437 10.09398437 -5.55515625 9.55515625 -5 9 C-3.83874274 7.00070306 -3.83874274 7.00070306 -2.875 4.875 C-1.08333333 1.08333333 -1.08333333 1.08333333 0 0 Z " fill="#1C1D41" transform="translate(59,40)"/>
<path d="M0 0 C0.33 0.66 0.66 1.32 1 2 C1.99 2 2.98 2 4 2 C3.67 3.65 3.34 5.3 3 7 C8.445 6.505 8.445 6.505 14 6 C14 6.66 14 7.32 14 8 C9.38 8 4.76 8 0 8 C0 8.66 0 9.32 0 10 C4.95 10 9.9 10 15 10 C15 10.33 15 10.66 15 11 C10.05 11 5.1 11 0 11 C-0.33 11.66 -0.66 12.32 -1 13 C-3.28964059 8.05919662 -3.28964059 8.05919662 -2.46484375 5.04296875 C-1.71434788 3.32904563 -0.86320768 1.66001476 0 0 Z " fill="#51516A" transform="translate(61,32)"/>
<path d="M0 0 C7.92 0 15.84 0 24 0 C24.33 0.66 24.66 1.32 25 2 C20.42603874 2.87797399 16.03084621 3.19401788 11.375 3.25 C10.08335937 3.27578125 8.79171875 3.3015625 7.4609375 3.328125 C4 3 4 3 0 0 Z " fill="#C0A974" transform="translate(296,69)"/>
<path d="M0 0 C0.33 0 0.66 0 1 0 C1.01981934 0.85754883 1.03963867 1.71509766 1.06005859 2.59863281 C1.13829521 5.78947642 1.22499343 8.9799474 1.31738281 12.17041016 C1.35559338 13.54955243 1.39046002 14.92879167 1.421875 16.30810547 C1.46769624 18.29416967 1.52666263 20.27991679 1.5859375 22.265625 C1.6173584 23.45961914 1.6487793 24.65361328 1.68115234 25.88378906 C1.84238668 29.2745221 1.84238668 29.2745221 4 33 C-0.62 33 -5.24 33 -10 33 C-10 32.34 -10 31.68 -10 31 C-6.7 31 -3.4 31 0 31 C0 20.77 0 10.54 0 0 Z " fill="#252743" transform="translate(365,21)"/>
<path d="M0 0 C0.33 0.66 0.66 1.32 1 2 C1.99 2 2.98 2 4 2 C2.15327609 8.46353367 -0.49437635 13.09538406 -6 17 C-4.33846988 11.14340094 -2.52958084 5.5409866 0 0 Z " fill="#3D3D57" transform="translate(21,26)"/>
<path d="M0 0 C4.08319884 -0.0871142 8.16615864 -0.14043048 12.25 -0.1875 C13.40886719 -0.21263672 14.56773438 -0.23777344 15.76171875 -0.26367188 C16.87675781 -0.27333984 17.99179688 -0.28300781 19.140625 -0.29296875 C20.16704102 -0.3086792 21.19345703 -0.32438965 22.25097656 -0.34057617 C25.36219561 0.04487237 26.7062117 0.91975476 29 3 C28.01 3 27.02 3 26 3 C26.33 4.65 26.66 6.3 27 8 C24.36 6.68 21.72 5.36 19 4 C19.99 3.67 20.98 3.34 22 3 C22 2.34 22 1.68 22 1 C14.74 1 7.48 1 0 1 C0 0.67 0 0.34 0 0 Z " fill="#505069" transform="translate(95,17)"/>
<path d="M0 0 C0.66 0.33 1.32 0.66 2 1 C2 3.31 2 5.62 2 8 C2.66 8 3.32 8 4 8 C4 8.66 4 9.32 4 10 C0.7 10 -2.6 10 -6 10 C-4.32427149 6.64854297 -3.45551853 5.45551853 -1 3 C-0.67 2.01 -0.34 1.02 0 0 Z " fill="#1F2143" transform="translate(15,44)"/>
<path d="M0 0 C2.97 0.33 5.94 0.66 9 1 C9 1.33 9 1.66 9 2 C6.69 2.33 4.38 2.66 2 3 C2 11.58 2 20.16 2 29 C1.34 29 0.68 29 0 29 C0 19.43 0 9.86 0 0 Z " fill="#FEFEFB" transform="translate(107,21)"/>
<path d="M0 0 C3.79160297 -0.05786668 7.58309311 -0.09355054 11.375 -0.125 C12.45523438 -0.14175781 13.53546875 -0.15851562 14.6484375 -0.17578125 C15.6796875 -0.18222656 16.7109375 -0.18867188 17.7734375 -0.1953125 C19.20308838 -0.21102295 19.20308838 -0.21102295 20.66162109 -0.22705078 C23 0 23 0 25 2 C24.01 2.495 24.01 2.495 23 3 C22.01 4.485 22.01 4.485 21 6 C20.67 5.67 20.34 5.34 20 5 C18.65252916 4.76924918 17.29622435 4.58846937 15.9375 4.4375 C14.638125 4.293125 13.33875 4.14875 12 4 C12 3.67 12 3.34 12 3 C14.97 3 17.94 3 21 3 C21 2.34 21 1.68 21 1 C10.605 1.495 10.605 1.495 0 2 C0 1.34 0 0.68 0 0 Z " fill="#626377" transform="translate(173,17)"/>
<path d="M0 0 C2.31 0 4.62 0 7 0 C7 0.33 7 0.66 7 1 C5.02 1 3.04 1 1 1 C1 4.96 1 8.92 1 13 C4.46941546 12.54177532 7.67395049 12.10868317 11 11 C10 14 10 14 8 15 C5.3276379 15.13415472 2.67749512 15.04318541 0 15 C0 10.05 0 5.1 0 0 Z " fill="#C7C8CE" transform="translate(221,20)"/>
<path d="M0 0 C2.64516087 2.64516087 2.32873984 4.00056515 2.375 7.6875 C2.28644866 13.35478599 1.47391536 16.5335374 -2 21 C-2.99 21.33 -3.98 21.66 -5 22 C-4.731875 21.484375 -4.46375 20.96875 -4.1875 20.4375 C-3.795625 19.633125 -3.40375 18.82875 -3 18 C-2.46375 16.989375 -1.9275 15.97875 -1.375 14.9375 C0.7097781 10.13936748 0.25037118 5.12797277 0 0 Z " fill="#CDCDD3" transform="translate(123,27)"/>
<path d="M0 0 C0.33 0 0.66 0 1 0 C1.07347656 1.12148438 1.07347656 1.12148438 1.1484375 2.265625 C1.22320312 3.25046875 1.29796875 4.2353125 1.375 5.25 C1.44460937 6.22453125 1.51421875 7.1990625 1.5859375 8.203125 C1.8984174 11.31584202 1.8984174 11.31584202 4 15 C-0.62 15 -5.24 15 -10 15 C-10 14.34 -10 13.68 -10 13 C-6.7 13 -3.4 13 0 13 C0 8.71 0 4.42 0 0 Z " fill="#2E2F4B" transform="translate(220,39)"/>
<path d="M0 0 C0.66 0.99 1.32 1.98 2 3 C1.67 3.99 1.34 4.98 1 6 C-3.29 5.67 -7.58 5.34 -12 5 C-12 4.34 -12 3.68 -12 3 C-10.82630859 2.80083984 -10.82630859 2.80083984 -9.62890625 2.59765625 C-8.61699219 2.42105469 -7.60507812 2.24445312 -6.5625 2.0625 C-5.55316406 1.88847656 -4.54382813 1.71445312 -3.50390625 1.53515625 C-1.0712562 1.25248903 -1.0712562 1.25248903 0 0 Z " fill="#191B3F" transform="translate(314,31)"/>
<path d="M0 0 C0.33 0 0.66 0 1 0 C1.04898438 0.78246094 1.09796875 1.56492188 1.1484375 2.37109375 C1.22320312 3.38300781 1.29796875 4.39492188 1.375 5.4375 C1.44460937 6.44683594 1.51421875 7.45617188 1.5859375 8.49609375 C1.72257813 9.32238281 1.85921875 10.14867187 2 11 C2.66 11.33 3.32 11.66 4 12 C4 12.66 4 13.32 4 14 C-0.62 14 -5.24 14 -10 14 C-9.34 12.68 -8.68 11.36 -8 10 C-7.67 10.99 -7.34 11.98 -7 13 C-4.69 13 -2.38 13 0 13 C0 8.71 0 4.42 0 0 Z " fill="#3F4059" transform="translate(184,40)"/>
<path d="M0 0 C1.71928713 2.62949796 2.01045637 3.87190947 1.75 7.0625 C1 10 1 10 -1 13 C-1 12.34 -1 11.68 -1 11 C-1.99 11 -2.98 11 -4 11 C-3.52269162 9.5410574 -3.04308958 8.08286504 -2.5625 6.625 C-2.29566406 5.81289063 -2.02882813 5.00078125 -1.75390625 4.1640625 C-1 2 -1 2 0 0 Z " fill="#3E3F5B" transform="translate(261,24)"/>
<path d="M0 0 C3.125 -0.1875 3.125 -0.1875 6 0 C6.66 1.65 7.32 3.3 8 5 C7.01 4.67 6.02 4.34 5 4 C5 3.34 5 2.68 5 2 C3.04105639 2.11306697 3.04105639 2.11306697 1 3 C0.29788106 4.65204456 -0.36971413 6.31923769 -1 8 C-1.99 8.33 -2.98 8.66 -4 9 C-2.94124926 5.59687262 -1.99097846 2.98646769 0 0 Z " fill="#373751" transform="translate(68,17)"/>
<path d="M0 0 C0.5534764 2.07553648 1 3.84365964 1 6 C-2.63195496 8.42130331 -4.38349348 8.21022785 -8.6875 8.125 C-9.86699219 8.10695313 -11.04648437 8.08890625 -12.26171875 8.0703125 C-13.16535156 8.04710937 -14.06898438 8.02390625 -15 8 C-15 7.67 -15 7.34 -15 7 C-11.37 7 -7.74 7 -4 7 C-4 5.68 -4 4.36 -4 3 C-2 1.25 -2 1.25 0 0 Z " fill="#494A63" transform="translate(402,47)"/>
<path d="M0 0 C0.66 0.33 1.32 0.66 2 1 C2 1.66 2 2.32 2 3 C3.093125 2.979375 4.18625 2.95875 5.3125 2.9375 C9 3 9 3 12 4 C12 4.66 12 5.32 12 6 C7.38 6 2.76 6 -2 6 C-2 5.34 -2 4.68 -2 4 C-1.34 4 -0.68 4 0 4 C0 2.68 0 1.36 0 0 Z " fill="#212343" transform="translate(79,48)"/>
<path d="M0 0 C4.95 0 9.9 0 15 0 C15 0.66 15 1.32 15 2 C12.5 3.625 12.5 3.625 10 5 C10 4.34 10 3.68 10 3 C6.7 2.67 3.4 2.34 0 2 C0 1.34 0 0.68 0 0 Z " fill="#3B3A54" transform="translate(330,17)"/>
<path d="M0 0 C-3.31371 2.20914 -4.3446021 2.22481553 -8.1875 2.125 C-9.08855469 2.10695312 -9.98960937 2.08890625 -10.91796875 2.0703125 C-11.60503906 2.04710937 -12.29210937 2.02390625 -13 2 C-13 1.34 -13 0.68 -13 0 C-8.37078475 -1.0161692 -4.65537393 -0.83796731 0 0 Z " fill="#18193D" transform="translate(198,37)"/>
<path d="M0 0 C-0.39337119 2.28155293 -0.91286211 3.86700007 -2.1875 5.8125 C-4 7 -4 7 -7.1875 6.6875 C-8.115625 6.460625 -9.04375 6.23375 -10 6 C-9.01 5.34 -8.02 4.68 -7 4 C-6.154375 3.29875 -5.30875 2.5975 -4.4375 1.875 C-2 0 -2 0 0 0 Z " fill="#E1E1E0" transform="translate(326,48)"/>
<path d="M0 0 C0.66 0.33 1.32 0.66 2 1 C2 1.66 2 2.32 2 3 C2.66 3 3.32 3 4 3 C4 3.66 4 4.32 4 5 C-0.95 5 -5.9 5 -11 5 C-10.01 4.01 -9.02 3.02 -8 2 C-7.67 2.66 -7.34 3.32 -7 4 C-4.69 4 -2.38 4 0 4 C0 2.68 0 1.36 0 0 Z " fill="#2F304B" transform="translate(284,49)"/>
<path d="M0 0 C2.31 0 4.62 0 7 0 C10 5.75 10 5.75 10 8 C9.01 7.67 8.02 7.34 7 7 C6.71125 6.360625 6.4225 5.72125 6.125 5.0625 C4.60901352 2.28319146 2.94132727 1.92884019 0 1 C0 0.67 0 0.34 0 0 Z " fill="#3B3C57" transform="translate(25,17)"/>
<path d="M0 0 C1.32 0.66 2.64 1.32 4 2 C4 2.66 4 3.32 4 4 C-0.62 4 -5.24 4 -10 4 C-10 3.34 -10 2.68 -10 2 C-7.03 2 -4.06 2 -1 2 C-0.67 1.34 -0.34 0.68 0 0 Z " fill="#303049" transform="translate(340,50)"/>
<path d="M0 0 C1.5625 1.25 1.5625 1.25 3 3 C2.875 5.0625 2.875 5.0625 2 7 C1.01 7.66 0.02 8.32 -1 9 C-2.25541557 5.23375329 -1.37061958 3.62811066 0 0 Z " fill="#2A2A49" transform="translate(404,43)"/>
<path d="M0 0 C0.33 0 0.66 0 1 0 C1 2.64 1 5.28 1 8 C-0.65 8 -2.3 8 -4 8 C-2.87548273 5.0280615 -1.77706209 2.66559313 0 0 Z " fill="#2D2C4D" transform="translate(59,40)"/>
<path d="M0 0 C0.66 0.33 1.32 0.66 2 1 C0.58192622 5.47238653 -1.11304374 9.71146306 -3 14 C-4.47625093 10.16174758 -3.47572448 7.72814606 -2 4 C-1.36184656 2.65278717 -0.70674629 1.31252882 0 0 Z " fill="#DCDCDF" transform="translate(62,25)"/>
<path d="M0 0 C0.66 0.99 1.32 1.98 2 3 C1.34 3 0.68 3 0 3 C0 3.66 0 4.32 0 5 C3.465 4.505 3.465 4.505 7 4 C7 4.66 7 5.32 7 6 C3.7 6 0.4 6 -3 6 C-2 4 -1 2 0 0 Z " fill="#363751" transform="translate(251,48)"/>
<path d="M0 0 C0.66 0 1.32 0 2 0 C1.69381595 3.67420866 1.24228216 4.78135513 -1.5625 7.3125 C-2.366875 7.869375 -3.17125 8.42625 -4 9 C-2.94124926 5.59687262 -1.99097846 2.98646769 0 0 Z " fill="#282847" transform="translate(19,34)"/>
<path d="M0 0 C0.33 0 0.66 0 1 0 C1.125 6.75 1.125 6.75 0 9 C-0.99 9 -1.98 9 -3 9 C-2.5020163 5.26512223 -2.12508244 3.18762365 0 0 Z " fill="#1F2043" transform="translate(65,25)"/>
<path d="M0 0 C2 1.375 2 1.375 4 3 C4 3.66 4 4.32 4 5 C-0.62 5 -5.24 5 -10 5 C-9.67 4.34 -9.34 3.68 -9 3 C-6.03 3.33 -3.06 3.66 0 4 C0 2.68 0 1.36 0 0 Z " fill="#32334C" transform="translate(45,49)"/>
<path d="M0 0 C0.33 1.32 0.66 2.64 1 4 C1.66 4 2.32 4 3 4 C3 4.66 3 5.32 3 6 C-0.3 6 -3.6 6 -7 6 C-6.67 5.34 -6.34 4.68 -6 4 C-3.4375 3.375 -3.4375 3.375 -1 3 C-0.67 2.01 -0.34 1.02 0 0 Z " fill="#2D2E48" transform="translate(16,48)"/>
<path d="M0 0 C5.36842105 -0.35789474 5.36842105 -0.35789474 7.875 1.0625 C9.58196395 4.00227124 9.18799766 6.67870803 9 10 C8.67 10 8.34 10 8 10 C7.34 7.36 6.68 4.72 6 2 C3.03 1.505 3.03 1.505 0 1 C0 0.67 0 0.34 0 0 Z " fill="#E4E4E7" transform="translate(224,21)"/>
<path d="M0 0 C0.5775 0.78375 1.155 1.5675 1.75 2.375 C3.82897637 4.80047244 5.09040333 5.85694417 8 7 C6.25 7.75 6.25 7.75 4 8 C1.75 6.3125 1.75 6.3125 0 4 C0 2.68 0 1.36 0 0 Z " fill="#E8E9EA" transform="translate(45,45)"/>
<path d="M0 0 C0.66 0.33 1.32 0.66 2 1 C2.625 3.5625 2.625 3.5625 3 6 C1.35 5.67 -0.3 5.34 -2 5 C-1.34 3.35 -0.68 1.7 0 0 Z " fill="#DFDFE3" transform="translate(265,26)"/>
<path d="M0 0 C0.99 0.495 0.99 0.495 2 1 C2.484375 2.77734375 2.484375 2.77734375 2.75 4.9375 C2.84796875 5.64777344 2.9459375 6.35804687 3.046875 7.08984375 C3 9 3 9 1 11 C0.83197949 9.54182203 0.66562857 8.0834516 0.5 6.625 C0.4071875 5.81289063 0.314375 5.00078125 0.21875 4.1640625 C0 2 0 2 0 0 Z " fill="#4E4D67" transform="translate(239,21)"/>
<path d="M0 0 C0.99 0.33 1.98 0.66 3 1 C3 1.66 3 2.32 3 3 C-0.3 3 -3.6 3 -7 3 C-7 2.34 -7 1.68 -7 1 C-5.5459375 1.0309375 -5.5459375 1.0309375 -4.0625 1.0625 C-1.12534105 1.35618499 -1.12534105 1.35618499 0 0 Z " fill="#2E2F48" transform="translate(58,51)"/>
<path d="M0 0 C0.66 0.33 1.32 0.66 2 1 C2.625 3.0625 2.625 3.0625 3 5 C1.35 5.33 -0.3 5.66 -2 6 C-1.34 4.02 -0.68 2.04 0 0 Z " fill="#17173F" transform="translate(253,47)"/>
<path d="M0 0 C2.15377564 2.62198774 3.40072174 4.64404172 4 8 C3.01 7.67 2.02 7.34 1 7 C-0.1875 3.9375 -0.1875 3.9375 -1 1 C-0.67 0.67 -0.34 0.34 0 0 Z " fill="#444460" transform="translate(278,35)"/>
</svg>
